<svg width="60" height="77" viewBox="0 0 60 77" fill="none" xmlns="http://www.w3.org/2000/svg">
<g clip-path="url(#clip0_452_335)">
<path d="M45 32.5C45.5523 32.5 46 32.9477 46 33.5V74.5C46 75.3241 45.0592 75.7944 44.4 75.3L30.6 64.95C30.2444 64.6834 29.7556 64.6834 29.4 64.95L15.6 75.3C14.9408 75.7944 14 75.3241 14 74.5V33.5C14 32.9477 14.4477 32.5 15 32.5H45Z" fill="#6A6779"/>
<path d="M18 49.5H21V71.2557L18 73.5V49.5Z" fill="white" fill-opacity="0.4"/>
<path d="M42 49.5H39V71.2557L42 73.5V49.5Z" fill="white" fill-opacity="0.4"/>
<mask id="mask0_452_335" style="mask-type:alpha" maskUnits="userSpaceOnUse" x="1" y="1" width="58" height="58">
<path d="M26.9721 2.80415C28.7612 1.44273 31.2388 1.44273 33.0279 2.80415L33.6106 3.24755C34.7998 4.15257 36.3316 4.47815 37.7862 4.1351L38.4988 3.96703C40.6869 3.45098 42.9504 4.45874 44.031 6.43013L44.383 7.07219C45.1013 8.38269 46.3682 9.30315 47.8366 9.58139L48.556 9.7177C50.7648 10.1363 52.4227 11.9775 52.6081 14.218L52.6684 14.9477C52.7917 16.4371 53.5747 17.7933 54.8029 18.6447L55.4047 19.0618C57.2523 20.3426 58.0179 22.699 57.276 24.8212L57.0343 25.5124C56.5411 26.9231 56.7048 28.4805 57.4806 29.7579L57.8606 30.3837C59.0276 32.3053 58.7686 34.7694 57.2276 36.4063L56.7258 36.9394C55.7014 38.0276 55.2175 39.5169 55.4066 40.9994L55.4993 41.7257C55.7838 43.9558 54.5449 46.1015 52.4714 46.9701L51.796 47.2531C50.4176 47.8305 49.3698 48.9942 48.9396 50.4255L48.7288 51.1267C48.0817 53.2796 46.0772 54.736 43.8296 54.6862L43.0976 54.6699C41.6035 54.6368 40.1729 55.2737 39.1978 56.4062L38.72 56.9611C37.2531 58.6647 34.8296 59.1799 32.7966 58.2202L32.1344 57.9076C30.783 57.2696 29.217 57.2696 27.8656 57.9076L27.2034 58.2202C25.1704 59.1799 22.7469 58.6647 21.28 56.9611L20.8022 56.4062C19.8271 55.2737 18.3965 54.6368 16.9024 54.6699L16.1704 54.6862C13.9228 54.736 11.9183 53.2797 11.2712 51.1267L11.0604 50.4255C10.6302 48.9942 9.58237 47.8305 8.20396 47.2531L7.52863 46.9701C5.45509 46.1015 4.21625 43.9558 4.50075 41.7257L4.59341 40.9994C4.78254 39.5169 4.29862 38.0276 3.27425 36.9394L2.77236 36.4063C1.2314 34.7694 0.972414 32.3053 2.13937 30.3837L2.51943 29.7579C3.29518 28.4805 3.45887 26.9231 2.96566 25.5124L2.72401 24.8212C1.98207 22.699 2.74772 20.3426 4.59534 19.0618L5.1971 18.6447C6.42533 17.7933 7.20832 16.4371 7.33155 14.9477L7.39192 14.218C7.57729 11.9775 9.23519 10.1363 11.444 9.7177L12.1634 9.58139C13.6318 9.30315 14.8987 8.38269 15.617 7.07219L15.969 6.43013C17.0496 4.45875 19.3131 3.45098 21.5012 3.96703L22.2138 4.1351C23.6684 4.47815 25.2002 4.15257 26.3894 3.24755L26.9721 2.80415Z" fill="#FFC202"/>
</mask>
<g mask="url(#mask0_452_335)">
<rect y="0.5" width="60" height="60" fill="#C0C1C5"/>
<circle opacity="0.5" cx="14" cy="10.5" r="28" fill="white"/>
<circle cx="30" cy="30.5" r="20" fill="#C0C1C5" stroke="#ACA7B4" stroke-width="4"/>
<g filter="url(#filter0_dd_452_335)">
<path d="M23.3195 39.5V36.562L30.2095 30.972C31.9775 29.516 33.1735 28.32 33.1735 26.708C33.1735 25.174 32.0035 24.134 30.0795 24.134C27.9215 24.134 26.4135 25.33 26.3355 27.982H23.0595C23.1375 23.51 26.4395 21.3 30.4175 21.3C34.0055 21.3 36.5015 23.12 36.5015 26.448C36.5015 29.334 34.5775 31.05 31.9775 33.156L27.9995 36.38H36.9435V39.5H23.3195Z" fill="#615E6E"/>
</g>
<g filter="url(#filter1_dd_452_335)">
<path d="M45.1827 42.6489L45.5561 43.7218C45.6885 44.1035 45.9057 44.4336 46.1837 44.6709L46.9146 45.2976C47.0285 45.3956 47.0285 45.6045 46.9146 45.7025L46.1837 46.3291C45.9083 46.5664 45.6912 46.8939 45.5561 47.2782L45.1827 48.3511C45.1139 48.5496 44.8861 48.5496 44.8173 48.3511L44.4439 47.2782C44.3115 46.8965 44.0943 46.5664 43.8163 46.3291L43.0854 45.7025C42.9715 45.6045 42.9715 45.3956 43.0854 45.2976L43.8163 44.6709C44.0917 44.4336 44.3088 44.1061 44.4439 43.7218L44.8173 42.6489C44.8861 42.4504 45.1139 42.4504 45.1827 42.6489Z" fill="white"/>
</g>
<g filter="url(#filter2_dd_452_335)">
<path d="M18.3659 12.7974L19.1138 14.9425C19.3791 15.7066 19.8136 16.3637 20.3671 16.8382L21.8285 18.0946C22.0572 18.2906 22.0572 18.7094 21.8285 18.9054L20.3671 20.1618C19.8136 20.6363 19.3814 21.2934 19.1138 22.0575L18.3659 24.2026C18.2287 24.5991 17.7736 24.5991 17.6341 24.2026L16.8862 22.0575C16.6209 21.2934 16.1864 20.6363 15.6329 20.1618L14.1715 18.9054C13.9428 18.7094 13.9428 18.2906 14.1715 18.0946L15.6329 16.8382C16.1864 16.3637 16.6186 15.7066 16.8862 14.9425L17.6341 12.7974C17.7713 12.4009 18.2264 12.4009 18.3659 12.7974Z" fill="white"/>
</g>
</g>
</g>
<defs>
<filter id="filter0_dd_452_335" x="19.0596" y="19.3" width="21.8838" height="26.2" filterUnits="userSpaceOnUse" color-interpolation-filters="sRGB">
<feFlood flood-opacity="0" result="BackgroundImageFix"/>
<feColorMatrix in="SourceAlpha" type="matrix" values="0 0 0 0 0 0 0 0 0 0 0 0 0 0 0 0 0 0 127 0" result="hardAlpha"/>
<feOffset dy="1"/>
<feGaussianBlur stdDeviation="1"/>
<feComposite in2="hardAlpha" operator="out"/>
<feColorMatrix type="matrix" values="0 0 0 0 0 0 0 0 0 0 0 0 0 0 0 0 0 0 0.08 0"/>
<feBlend mode="normal" in2="BackgroundImageFix" result="effect1_dropShadow_452_335"/>
<feColorMatrix in="SourceAlpha" type="matrix" values="0 0 0 0 0 0 0 0 0 0 0 0 0 0 0 0 0 0 127 0" result="hardAlpha"/>
<feOffset dy="2"/>
<feGaussianBlur stdDeviation="2"/>
<feComposite in2="hardAlpha" operator="out"/>
<feColorMatrix type="matrix" values="0 0 0 0 0 0 0 0 0 0 0 0 0 0 0 0 0 0 0.12 0"/>
<feBlend mode="normal" in2="effect1_dropShadow_452_335" result="effect2_dropShadow_452_335"/>
<feBlend mode="normal" in="SourceGraphic" in2="effect2_dropShadow_452_335" result="shape"/>
</filter>
<filter id="filter1_dd_452_335" x="39" y="40.5" width="12" height="14" filterUnits="userSpaceOnUse" color-interpolation-filters="sRGB">
<feFlood flood-opacity="0" result="BackgroundImageFix"/>
<feColorMatrix in="SourceAlpha" type="matrix" values="0 0 0 0 0 0 0 0 0 0 0 0 0 0 0 0 0 0 127 0" result="hardAlpha"/>
<feOffset dy="1"/>
<feGaussianBlur stdDeviation="1"/>
<feComposite in2="hardAlpha" operator="out"/>
<feColorMatrix type="matrix" values="0 0 0 0 0 0 0 0 0 0 0 0 0 0 0 0 0 0 0.08 0"/>
<feBlend mode="normal" in2="BackgroundImageFix" result="effect1_dropShadow_452_335"/>
<feColorMatrix in="SourceAlpha" type="matrix" values="0 0 0 0 0 0 0 0 0 0 0 0 0 0 0 0 0 0 127 0" result="hardAlpha"/>
<feOffset dy="2"/>
<feGaussianBlur stdDeviation="2"/>
<feComposite in2="hardAlpha" operator="out"/>
<feColorMatrix type="matrix" values="0 0 0 0 0 0 0 0 0 0 0 0 0 0 0 0 0 0 0.12 0"/>
<feBlend mode="normal" in2="effect1_dropShadow_452_335" result="effect2_dropShadow_452_335"/>
<feBlend mode="normal" in="SourceGraphic" in2="effect2_dropShadow_452_335" result="shape"/>
</filter>
<filter id="filter2_dd_452_335" x="10" y="10.5" width="16" height="20" filterUnits="userSpaceOnUse" color-interpolation-filters="sRGB">
<feFlood flood-opacity="0" result="BackgroundImageFix"/>
<feColorMatrix in="SourceAlpha" type="matrix" values="0 0 0 0 0 0 0 0 0 0 0 0 0 0 0 0 0 0 127 0" result="hardAlpha"/>
<feOffset dy="1"/>
<feGaussianBlur stdDeviation="1"/>
<feComposite in2="hardAlpha" operator="out"/>
<feColorMatrix type="matrix" values="0 0 0 0 0 0 0 0 0 0 0 0 0 0 0 0 0 0 0.08 0"/>
<feBlend mode="normal" in2="BackgroundImageFix" result="effect1_dropShadow_452_335"/>
<feColorMatrix in="SourceAlpha" type="matrix" values="0 0 0 0 0 0 0 0 0 0 0 0 0 0 0 0 0 0 127 0" result="hardAlpha"/>
<feOffset dy="2"/>
<feGaussianBlur stdDeviation="2"/>
<feComposite in2="hardAlpha" operator="out"/>
<feColorMatrix type="matrix" values="0 0 0 0 0 0 0 0 0 0 0 0 0 0 0 0 0 0 0.12 0"/>
<feBlend mode="normal" in2="effect1_dropShadow_452_335" result="effect2_dropShadow_452_335"/>
<feBlend mode="normal" in="SourceGraphic" in2="effect2_dropShadow_452_335" result="shape"/>
</filter>
<clipPath id="clip0_452_335">
<rect width="60" height="76" fill="white" transform="translate(0 0.5)"/>
</clipPath>
</defs>
</svg>
