<svg width="44" height="45" viewBox="0 0 44 45" fill="none" xmlns="http://www.w3.org/2000/svg">
<g clip-path="url(#clip0_452_484)">
<path d="M35.2245 17.7463L25.7946 21.5623C26.9955 18.7963 27.2132 15.8578 26.9428 13.3491C24.1393 13.3392 23.5592 9.52891 26.0708 8.52299C27.3498 7.93263 28.7639 8.59662 29.3586 9.88174C29.761 10.8338 29.483 11.8825 28.7277 12.6147C30.277 14.533 32.4604 16.5294 35.2245 17.7463Z" fill="#F5D400"/>
<path opacity="0.6" d="M26.8492 18.0329C26.6313 19.1858 26.303 20.4026 25.8008 21.573L35.2245 17.7463C34.7026 17.6075 34.2275 17.2948 33.7525 16.9821C31.4332 18.3211 29.0474 18.5246 26.8492 18.0329ZM27.0882 13.3458C26.061 13.352 25.1744 12.8366 24.8234 11.7186C24.3454 10.3804 24.8946 9.03618 26.1729 8.44484C27.4513 7.8535 28.8598 8.50773 29.4483 9.78211C29.8462 10.7263 29.5648 11.7692 28.8084 12.4995C28.2728 13.1021 27.6571 13.3109 27.0882 13.3458Z" fill="#C29A0A"/>
<path d="M11.2312 31.5988L19.257 25.3509C16.2691 25.0216 13.6261 23.7594 11.5988 22.2885C12.1177 21.402 12.1147 20.3765 11.3219 19.5135C10.4021 18.4304 8.96335 18.2339 7.81205 19.0454C6.66074 19.8568 6.52307 21.4037 7.33246 22.5506C7.95123 23.3673 8.99512 23.645 10.0057 23.355C10.9452 25.7474 11.57 28.615 11.2312 31.5988Z" fill="#F5D400"/>
<path opacity="0.6" d="M15.6669 24.4888C16.7744 24.8766 17.9922 25.2006 19.257 25.3509L11.2312 31.5988C11.3719 31.0773 11.3386 30.5096 11.3053 29.9418C13.6245 28.6028 14.9937 26.6384 15.6669 24.4888ZM11.4884 22.3523C12.0073 21.4657 12.0042 20.4403 11.2115 19.5773C10.2917 18.4942 8.85291 18.2977 7.70161 19.1091C6.5503 19.9206 6.41263 21.4675 7.22202 22.6143C7.84079 23.431 8.88468 23.7088 9.89529 23.4188C10.685 23.2563 11.1737 22.8275 11.4884 22.3523Z" fill="#C29A0A"/>
<path d="M1.61551 27.5091C3.91343 30.2347 9.54564 34.2191 11.6763 37.9096L13.8697 41.7086L42.6607 25.0861L40.4673 21.2871C38.3366 17.5967 37.7021 10.7268 36.4906 7.37396C36.2859 6.76851 35.5087 6.92778 35.2914 7.05324C34.4223 7.55505 34.1004 8.75393 34.6018 9.62228C34.8524 10.0565 35.5711 10.7993 36.4736 10.8572C37.8268 18.4699 25.6711 24.7644 15.7485 10.087L14.5534 10.777C14.6161 10.8856 14.6161 10.8856 14.6788 10.9941C22.2571 26.8802 10.6655 34.1515 4.85786 29.1105C5.25906 28.3 5.03768 27.4147 4.72434 26.872C4.223 26.0037 3.02381 25.6829 2.15465 26.1848C1.6574 26.3271 1.19353 27.0291 1.61551 27.5091Z" fill="#FFFA01"/>
<path d="M36.523 11.1801C39.028 20.0491 26.1745 26.2524 15.3694 10.306L15.8187 10.3291C25.4747 24.5369 37.2597 18.7525 36.523 11.1801ZM4.58077 28.8949C11.0091 35.4987 23.123 28.0143 14.7155 10.6835L14.5109 11.0842C21.9872 26.5504 10.4183 33.7203 4.58077 28.8949ZM1.87461 27.7059C1.81342 27.5999 1.75224 27.4939 1.58207 27.4509C1.16715 26.9839 1.69868 26.3944 1.91665 26.2686C3.00649 25.6393 4.47317 26.0643 4.86706 27.2499C4.26859 26.465 1.88224 26.7123 1.87461 27.7059ZM36.457 7.31579C36.5182 7.42177 36.5794 7.52774 36.5316 7.69665C35.6674 7.20648 34.3356 8.3993 34.7429 9.85981C33.913 8.92587 34.0058 7.60056 35.0957 6.97134C35.4226 6.78257 36.2601 6.72297 36.457 7.31579Z" fill="#EBDF00"/>
<path d="M18.5241 9.12061C19.9284 10.6986 19.6607 13.0826 18.1413 14.4376C16.4986 15.8638 14.0827 15.6661 12.8018 14.0169C11.3975 12.4389 11.6651 10.0549 13.1846 8.69991C14.7729 7.46437 17.3121 7.59087 18.5241 9.12061Z" fill="#FFFA01"/>
<path d="M19.0158 9.82088C19.8541 11.2728 19.5335 13.2325 18.1702 14.5037C15.6155 16.7852 11.7934 14.636 11.9181 11.4988C13.7531 14.9566 18.9286 13.5818 19.0158 9.82088Z" fill="#F5D400"/>
<path d="M42.5983 24.9769C43.7317 26.94 38.1786 32.1818 30.2173 36.7783C22.2559 41.3748 14.9398 43.563 13.8064 41.5999C12.673 39.6368 18.226 34.395 26.1874 29.7985C34.1488 25.202 41.4649 23.0138 42.5983 24.9769Z" fill="#FFFA01"/>
<path d="M16.8554 38.8215L18.6185 41.8752C20.007 41.5097 21.6137 41.0184 23.2035 40.2459L21.5035 37.3013L16.8554 38.8215ZM35.308 29.4766L36.9451 32.3122C38.7823 30.9607 40.1663 29.58 41.1141 28.4511L39.477 25.6155L35.308 29.4766ZM24.8259 36.2556L26.3371 38.873C28.254 37.9116 29.8899 36.9671 31.6349 35.9597L30.0608 33.2332L24.8259 36.2556Z" fill="#EBDF00"/>
<path d="M40.3393 21.2403L41.2761 22.6866C42.4094 24.6497 36.8564 29.8915 28.895 34.488C20.9337 39.0845 13.6176 41.2727 12.4842 39.3096L11.5475 37.8633C12.6808 39.8263 19.9969 37.6382 27.9583 33.0417C35.9197 28.4452 41.4727 23.2034 40.3393 21.2403Z" fill="#F5D400"/>
<path d="M16.9592 9.53345C16.867 9.8775 16.0069 9.64703 15.1637 9.69764C14.3204 9.74826 13.557 10.189 13.3681 9.86184C13.0701 9.59762 13.7368 8.48563 14.9702 8.35518C16.3757 8.27082 17.2234 9.23549 16.9592 9.53345Z" fill="white" fill-opacity="0.6"/>
<path d="M28.2993 9.52978C28.1442 9.76477 27.6281 9.62649 27.0659 9.66023C26.5037 9.69397 26.0675 9.94584 25.8325 9.79068C25.7066 9.57256 26.1091 8.75853 26.9523 8.70791C27.7956 8.6573 28.4545 9.29479 28.2993 9.52978Z" fill="white" fill-opacity="0.6"/>
<path d="M10.0864 20.0451C9.93127 20.2801 9.41519 20.1418 8.85302 20.1756C8.29085 20.2093 7.85461 20.4612 7.61961 20.306C7.49368 20.0879 7.89618 19.2738 8.73944 19.2232C9.5827 19.1726 10.2416 19.8101 10.0864 20.0451Z" fill="white" fill-opacity="0.6"/>
</g>
<defs>
<clipPath id="clip0_452_484">
<rect width="44" height="44" fill="white" transform="translate(0 0.5)"/>
</clipPath>
</defs>
</svg>
